<?xml version="1.0" standalone="no"?>
<!DOCTYPE svg PUBLIC "-//W3C//DTD SVG 20010904//EN"
 "http://www.w3.org/TR/2001/REC-SVG-20010904/DTD/svg10.dtd">
<svg version="1.0" xmlns="http://www.w3.org/2000/svg"
 width="1800.000000pt" height="1425.000000pt" viewBox="0 0 1800.000000 1425.000000"
 preserveAspectRatio="xMidYMid meet">

<g transform="translate(0.000000,1425.000000) scale(0.100000,-0.100000)"
fill="#000000" stroke="none">
<path d="M3528 5379 c-269 -39 -417 -155 -475 -370 -16 -59 -17 -159 -20
-1171 l-4 -1108 371 0 370 0 0 1330 0 1330 -92 -1 c-51 -1 -119 -5 -150 -10z"/>
<path d="M4020 4225 l0 -1165 365 0 365 0 0 1165 0 1165 -365 0 -365 0 0
-1165z"/>
<path d="M4990 4062 l0 -1332 370 0 371 0 -3 1113 c-3 1016 -5 1117 -21 1170
-73 247 -248 357 -589 374 l-128 6 0 -1331z"/>
<path d="M6615 5379 c-158 -23 -308 -95 -379 -182 -76 -95 -122 -230 -133
-399 l-6 -98 1366 0 1367 0 0 345 0 345 -1077 -1 c-593 -1 -1105 -5 -1138 -10z"/>
<path d="M9635 5379 c-269 -39 -424 -166 -471 -387 -11 -55 -14 -258 -14
-1164 l0 -1098 365 0 365 0 0 1330 0 1330 -92 -1 c-51 -1 -120 -5 -153 -10z"/>
<path d="M10130 4225 l0 -1165 365 0 365 0 0 1165 0 1165 -365 0 -365 0 0
-1165z"/>
<path d="M11110 4060 l0 -1330 365 0 365 0 0 1084 c0 1159 0 1171 -49 1282
-51 115 -149 202 -276 244 -87 29 -222 50 -322 50 l-83 0 0 -1330z"/>
<path d="M12688 5374 c-317 -57 -466 -232 -485 -566 l-6 -108 1367 0 1366 0 0
345 0 345 -1082 -1 c-882 -1 -1097 -3 -1160 -15z"/>
<path d="M6104 4304 c21 -254 157 -431 457 -593 l75 -40 1093 -7 1094 -7 -7
64 c-18 159 -61 278 -134 368 -81 99 -263 202 -475 265 l-118 36 -996 0 -996
0 7 -86z"/>
<path d="M12200 4005 l0 -375 1035 0 1035 0 0 375 0 375 -1035 0 -1035 0 0
-375z"/>
<path d="M6100 3080 l0 -350 1033 0 c629 0 1067 4 1122 10 203 23 327 73 420
171 94 99 141 225 152 412 l6 107 -1366 0 -1367 0 0 -350z"/>
<path d="M12203 3323 c10 -187 62 -324 159 -422 91 -90 220 -141 408 -161 56
-6 514 -10 1128 -10 l1032 0 0 350 0 350 -1366 0 -1367 0 6 -107z"/>
<path d="M3010 2425 l0 -115 5950 0 5950 0 0 115 0 115 -5950 0 -5950 0 0
-115z"/>
<path d="M3912 2040 c-20 -13 -42 -39 -55 -68 -19 -41 -22 -64 -22 -192 0
-135 2 -148 25 -194 30 -60 63 -86 119 -93 81 -11 156 49 168 134 5 36 3 39
-29 51 -48 17 -58 15 -58 -10 0 -38 -37 -88 -63 -88 -36 0 -57 31 -68 101 -13
77 -3 222 17 261 13 24 20 29 47 26 26 -2 36 -10 52 -44 l20 -40 43 9 c41 8
43 10 37 35 -14 57 -35 93 -67 112 -44 27 -122 27 -166 0z"/>
<path d="M4710 2038 c-65 -45 -96 -153 -87 -298 8 -106 20 -151 54 -191 51
-60 125 -74 199 -38 64 30 95 100 102 222 11 219 -48 327 -178 327 -43 0 -65
-6 -90 -22z m139 -90 c28 -29 33 -66 29 -201 -3 -107 -5 -117 -28 -142 -32
-34 -75 -31 -104 8 -19 26 -21 42 -21 167 0 133 1 139 24 164 30 32 73 34 100
4z"/>
<path d="M5534 2050 c-32 -13 -71 -65 -78 -104 -9 -48 8 -107 40 -139 15 -15
55 -43 90 -62 35 -20 68 -44 74 -55 26 -48 -2 -110 -49 -110 -40 0 -63 21 -70
66 l-6 39 -45 -4 c-25 -1 -47 -5 -48 -6 -2 -2 -1 -22 3 -44 20 -117 129 -172
235 -118 61 31 82 74 78 154 -4 56 -8 67 -38 98 -19 20 -57 48 -85 64 -27 16
-58 38 -69 49 -24 27 -24 72 0 89 31 23 57 12 79 -35 12 -27 25 -40 33 -37 8
3 27 5 44 5 29 0 30 1 23 37 -10 55 -32 91 -65 108 -31 16 -112 19 -146 5z"/>
<path d="M7732 2047 c-58 -33 -72 -112 -33 -188 l23 -43 -36 -29 c-48 -38 -68
-80 -68 -137 0 -138 146 -206 267 -124 l38 25 26 -25 c35 -33 41 -32 68 6 l23
32 -34 36 -33 35 18 40 c27 60 25 71 -20 83 -37 9 -40 8 -45 -14 -9 -34 -18
-30 -54 19 l-31 44 35 34 c61 59 66 136 12 190 -25 25 -37 29 -81 29 -29 -1
-62 -6 -75 -13z m102 -63 c23 -22 20 -54 -8 -89 l-24 -29 -21 34 c-11 19 -21
43 -21 52 0 20 26 48 45 48 7 0 21 -7 29 -16z m-14 -300 l45 -66 -30 -24 c-37
-30 -72 -31 -102 -2 -32 30 -31 87 3 127 14 17 29 31 32 31 4 0 27 -30 52 -66z"/>
<path d="M13904 2050 c-32 -13 -71 -65 -78 -104 -9 -48 8 -107 40 -139 15 -15
55 -43 90 -62 35 -20 68 -44 74 -55 26 -48 -2 -110 -49 -110 -40 0 -63 21 -70
66 l-6 39 -45 -4 c-25 -1 -47 -5 -48 -6 -10 -9 12 -88 32 -117 32 -49 80 -70
143 -64 99 9 149 72 141 177 -4 51 -9 64 -38 94 -19 20 -57 48 -85 64 -27 16
-58 38 -69 49 -24 27 -24 72 0 89 31 23 57 12 79 -35 12 -27 25 -40 33 -37 8
3 27 5 44 5 29 0 30 1 23 37 -10 55 -32 91 -65 108 -31 16 -112 19 -146 5z"/>
<path d="M14623 2040 c-56 -34 -79 -93 -63 -164 11 -49 49 -88 127 -132 68
-38 83 -56 83 -102 0 -80 -108 -83 -126 -4 -11 50 -11 51 -56 45 -24 -3 -45
-7 -46 -9 -10 -8 12 -87 32 -116 32 -49 80 -70 143 -64 99 9 149 72 141 177
-4 51 -9 64 -39 95 -19 19 -57 48 -85 64 -69 40 -86 61 -82 101 2 26 9 36 30
43 34 12 63 -10 72 -56 4 -22 10 -29 22 -24 9 3 29 6 46 6 29 0 30 1 23 37
-10 55 -32 91 -65 108 -41 21 -118 19 -157 -5z"/>
<path d="M3102 1778 l3 -273 43 -3 42 -3 1 213 1 213 42 -210 41 -210 46 -3
46 -3 44 208 44 208 3 -207 2 -208 45 0 45 0 0 275 0 275 -69 0 c-58 0 -71 -3
-75 -17 -3 -10 -22 -94 -43 -187 -20 -92 -39 -162 -42 -155 -2 8 -21 91 -41
184 l-37 170 -71 3 -72 3 2 -273z"/>
<path d="M3650 1775 l0 -275 45 0 45 0 0 275 0 275 -45 0 -45 0 0 -275z"/>
<path d="M4230 1775 l0 -275 45 0 45 0 0 115 c0 110 1 115 21 115 40 0 56 -20
104 -125 l49 -105 52 0 53 0 -16 38 c-34 82 -85 178 -103 194 -19 16 -19 17
16 37 85 50 86 209 2 261 -28 17 -50 20 -150 20 l-118 0 0 -275z m210 175 c26
-14 35 -53 20 -90 -13 -31 -55 -50 -112 -50 l-28 0 0 81 0 82 50 -6 c27 -3 59
-11 70 -17z"/>
<path d="M5840 1775 l0 -275 45 0 45 0 1 208 1 207 41 -207 41 -208 46 0 45 0
45 213 45 212 3 -212 2 -213 40 0 40 0 0 275 0 276 -67 -3 -67 -3 -40 -178
c-22 -97 -43 -174 -46 -170 -4 5 -22 78 -39 163 -18 85 -35 163 -37 173 -5 14
-17 17 -75 17 l-69 0 0 -275z"/>
<path d="M6407 1782 c-37 -147 -67 -270 -67 -274 0 -5 20 -8 44 -8 48 0 49 1
62 73 l6 37 73 0 74 0 11 -55 11 -55 49 0 48 0 -69 273 c-38 149 -69 273 -69
275 0 1 -24 2 -52 2 l-53 0 -68 -268z m148 36 c13 -62 22 -114 20 -116 -1 -2
-25 -2 -52 0 l-49 3 24 118 c14 64 27 115 30 112 2 -2 15 -55 27 -117z"/>
<path d="M6770 1775 l0 -275 140 0 140 0 0 45 0 45 -95 0 -95 0 0 230 0 230
-45 0 -45 0 0 -275z"/>
<path d="M7120 1775 l0 -275 140 0 140 0 0 45 0 45 -95 0 -95 0 0 230 0 230
-45 0 -45 0 0 -275z"/>
<path d="M8270 1775 l0 -275 45 0 45 0 1 208 1 207 41 -207 41 -208 46 0 46 0
44 213 45 212 3 -212 2 -213 40 0 40 0 0 275 0 276 -67 -3 -67 -3 -40 -182
c-22 -100 -42 -180 -44 -178 -2 2 -19 75 -38 162 -18 87 -36 168 -39 181 -5
20 -11 22 -75 22 l-70 0 0 -275z"/>
<path d="M8820 1785 c0 -146 -1 -268 -2 -272 -2 -5 57 -9 130 -11 l132 -3 0
46 0 45 -85 0 -85 0 0 80 0 80 75 0 75 0 0 40 0 40 -75 0 -75 0 0 70 0 70 80
0 80 0 0 40 0 40 -125 0 -125 0 0 -265z"/>
<path d="M9160 1776 l0 -276 105 0 c119 0 161 12 192 56 35 50 46 103 46 228
1 134 -14 187 -67 236 -26 23 -35 25 -152 28 l-124 4 0 -276z m187 184 c48
-17 58 -48 58 -186 0 -109 -2 -126 -21 -151 -18 -23 -29 -28 -73 -31 l-51 -3
0 190 0 191 29 0 c15 0 42 -5 58 -10z"/>
<path d="M9590 1775 l0 -275 45 0 45 0 0 275 0 275 -45 0 -45 0 0 -275z"/>
<path d="M9792 1816 c3 -219 4 -236 24 -263 64 -87 215 -83 269 8 18 31 20 55
23 262 l3 227 -45 0 -45 0 -3 -216 c-3 -213 -3 -216 -27 -235 -33 -27 -66 -24
-90 7 -20 25 -21 39 -21 235 l0 209 -46 0 -45 0 3 -234z"/>
<path d="M10210 1774 l0 -275 43 3 42 3 0 198 c0 108 2 197 5 197 3 0 23 -90
45 -200 l39 -200 46 0 45 0 45 213 45 212 3 -212 2 -213 40 0 40 0 0 275 0
276 -67 -3 -67 -3 -40 -177 c-22 -98 -42 -178 -45 -178 -4 0 -17 51 -29 113
-13 61 -30 142 -38 180 l-16 67 -69 0 -69 0 0 -276z"/>
<path d="M10930 1775 l0 -276 133 3 132 3 0 40 0 40 -87 3 -88 3 0 79 0 80 75
0 75 0 0 40 0 39 -72 3 -73 3 -3 68 -3 67 86 0 85 0 0 40 0 40 -130 0 -130 0
0 -275z"/>
<path d="M11270 1776 l0 -276 47 0 46 0 -7 177 c-4 97 -3 174 1 169 4 -4 40
-82 79 -174 l70 -167 47 -3 47 -3 0 275 0 276 -45 0 -45 0 0 -167 -1 -168 -68
165 -69 165 -51 3 -51 3 0 -275z"/>
<path d="M11660 2010 l0 -40 60 0 60 0 0 -235 0 -235 45 0 45 0 0 235 0 235
60 0 60 0 0 40 0 40 -165 0 -165 0 0 -40z"/>
<path d="M12050 1775 l0 -275 136 0 135 0 -3 43 -3 42 -87 3 -88 3 0 79 0 80
75 0 75 0 0 40 0 39 -72 3 -73 3 -3 68 -3 67 86 0 85 0 0 40 0 40 -130 0 -130
0 0 -275z"/>
<path d="M12400 1775 l0 -275 45 0 45 0 0 115 0 115 25 0 c36 0 54 -23 105
-132 l45 -98 52 0 52 0 -31 73 c-38 89 -75 154 -95 165 -12 7 -7 13 22 30 89
53 86 222 -6 269 -15 8 -68 13 -141 13 l-118 0 0 -275z m182 185 c45 -13 62
-40 53 -87 -5 -27 -13 -38 -40 -49 -19 -8 -50 -14 -70 -14 l-35 0 0 80 0 80
28 0 c15 0 44 -5 64 -10z"/>
<path d="M12820 1775 l0 -275 45 0 45 0 0 104 0 104 60 4 c67 5 104 26 134 77
25 42 25 144 1 195 -26 55 -57 66 -180 66 l-105 0 0 -275z m193 163 c44 -52 1
-143 -66 -136 l-32 3 -3 69 c-2 38 0 76 3 84 8 20 75 7 98 -20z"/>
<path d="M13210 1775 l0 -275 45 0 45 0 0 115 0 115 25 0 c36 0 55 -24 105
-133 l45 -97 52 0 52 0 -35 82 c-41 95 -69 144 -91 156 -12 7 -8 13 22 30 89
53 86 222 -6 269 -15 8 -68 13 -141 13 l-118 0 0 -275z m182 185 c45 -13 62
-40 53 -86 -7 -40 -28 -53 -95 -61 l-50 -6 0 75 c0 41 3 78 7 81 9 10 42 8 85
-3z"/>
<path d="M13630 1775 l0 -275 50 0 50 0 0 275 0 275 -50 0 -50 0 0 -275z"/>
<path d="M14210 1775 l0 -275 136 0 135 0 -3 43 -3 42 -88 3 -88 3 3 77 3 77
74 5 74 5 4 37 3 37 -77 3 -78 3 0 65 0 65 83 3 82 3 0 39 0 40 -130 0 -130 0
0 -275z"/>
<path d="M5080 1550 c0 -44 3 -50 21 -50 16 0 19 -4 14 -22 -4 -13 -17 -33
-30 -44 -21 -20 -22 -24 -9 -40 13 -18 16 -17 49 18 34 36 35 41 35 113 l0 75
-40 0 -40 0 0 -50z"/>
<path d="M8960 1260 c0 -30 1 -30 55 -30 54 0 55 0 55 30 0 30 -1 30 -55 30
-54 0 -55 0 -55 -30z"/>
<path d="M4560 1110 c0 -19 7 -20 110 -20 l110 0 0 -77 c0 -43 -4 -84 -8 -91
-13 -19 -37 -5 -55 33 -18 38 -48 46 -82 21 -18 -13 -18 -14 5 -52 36 -60 151
-226 173 -251 24 -27 44 -29 75 -7 l23 16 -44 51 c-42 50 -87 118 -87 131 0 3
8 6 18 6 10 0 26 6 37 13 13 8 45 11 93 9 l72 -4 0 -123 c0 -109 -2 -125 -18
-137 -49 -34 -54 -94 -14 -139 24 -27 37 -33 83 -36 30 -3 67 0 83 6 28 11 28
12 10 32 -14 16 -26 19 -53 14 -38 -7 -51 4 -51 47 0 35 26 61 54 52 31 -9 91
-71 118 -120 25 -48 44 -54 77 -27 l21 18 -34 51 c-44 64 -100 111 -148 125
l-38 10 0 214 0 215 35 0 c28 0 35 4 35 20 0 20 -7 20 -300 20 -293 0 -300 0
-300 -20z m438 -97 l-3 -78 -62 -3 -63 -3 0 81 0 80 65 0 66 0 -3 -77z"/>
<path d="M5275 1118 c-50 -27 -60 -89 -24 -139 l21 -30 -36 -39 c-27 -30 -36
-49 -36 -75 0 -74 36 -111 121 -121 41 -5 58 -13 77 -35 26 -31 57 -37 87 -15
18 13 18 15 -11 40 -26 24 -27 27 -11 37 10 6 17 22 17 39 0 35 -27 53 -73 48
-29 -3 -45 -19 -60 -63 -2 -5 -16 -2 -30 8 -37 24 -38 87 -3 122 22 22 28 23
62 13 21 -5 71 -8 111 -6 59 3 74 0 78 -12 3 -8 21 -32 40 -53 30 -33 40 -38
73 -35 36 3 37 4 40 46 l3 42 59 0 59 0 3 -117 3 -118 43 -3 42 -3 0 220 0
221 35 0 c28 0 35 4 35 20 0 20 -7 20 -270 20 -263 0 -270 0 -270 -20 0 -18 7
-20 85 -20 l85 0 0 -80 c0 -64 -3 -80 -15 -80 -9 0 -15 9 -15 21 0 23 -13 23
-96 -2 -22 -7 -53 -9 -68 -5 l-27 7 31 36 c26 29 31 42 26 65 -7 34 -25 54
-61 68 -34 13 -105 12 -130 -2z m565 -108 l0 -80 -60 0 -60 0 0 80 0 80 60 0
60 0 0 -80z m-470 51 c13 -25 -3 -71 -25 -71 -22 0 -38 46 -25 71 6 10 17 19
25 19 8 0 19 -9 25 -19z"/>
<path d="M6570 1110 c0 -19 8 -20 218 -22 l217 -3 0 -54 0 -53 -43 -15 c-39
-13 -48 -13 -76 1 -35 16 -67 21 -130 18 -30 -2 -47 -10 -77 -41 -33 -32 -39
-45 -39 -80 0 -68 48 -140 130 -194 34 -24 87 -22 100 2 9 17 3 23 -43 50 -61
35 -81 55 -97 95 -13 35 1 84 30 111 19 17 22 17 60 0 52 -24 55 -29 33 -65
-16 -27 -16 -32 -3 -41 25 -16 64 -23 67 -12 11 31 65 103 78 103 13 0 15 -20
15 -130 l0 -130 40 0 40 0 2 218 3 217 78 3 c42 2 77 1 77 -1 0 -2 -5 -18 -11
-36 -14 -39 2 -83 36 -101 l24 -13 -21 -28 c-43 -58 -16 -132 58 -157 50 -18
129 -10 182 17 23 12 46 21 52 21 6 0 10 -29 10 -73 0 -70 -1 -74 -26 -86 -26
-11 -26 -12 -9 -31 22 -24 44 -25 83 -3 25 14 32 15 46 4 33 -27 17 -87 -27
-106 -37 -16 -84 -2 -154 45 -51 35 -79 35 -100 3 -14 -20 -12 -23 31 -48 151
-88 332 -67 352 42 12 63 -35 123 -96 123 -20 0 -20 3 -18 213 l3 212 43 3
c34 3 42 7 42 23 0 19 -12 19 -590 19 -581 0 -590 0 -590 -20z m1008 -137 c2
-95 0 -113 -12 -113 -9 0 -35 -14 -59 -31 -58 -41 -117 -49 -146 -20 -45 45
-7 109 72 118 42 5 45 7 36 24 -7 15 -21 19 -61 19 -79 0 -111 43 -72 98 15
22 21 23 127 20 l112 -3 3 -112z"/>
<path d="M8157 1124 c-14 -15 8 -34 39 -34 l34 0 0 -118 0 -119 120 -112 c97
-91 118 -116 109 -127 -6 -8 -23 -14 -38 -14 l-26 0 25 -20 c50 -39 130 -15
130 39 0 22 -23 50 -115 140 l-116 112 3 107 3 107 65 0 65 0 0 -88 c0 -82 -2
-90 -24 -108 -23 -19 -23 -20 -5 -34 28 -21 59 -18 91 9 27 23 28 29 31 125
l4 101 174 0 174 0 0 -45 c0 -44 0 -44 -26 -35 -73 28 -163 0 -194 -61 -25
-48 -25 -85 0 -126 32 -53 64 -68 147 -67 l73 1 0 -54 0 -54 43 3 42 3 3 218
2 217 40 0 c33 0 40 3 40 20 0 20 -7 20 -453 20 -250 0 -456 -3 -460 -6z m706
-160 l37 -7 0 -52 c0 -47 -4 -56 -31 -79 -37 -31 -62 -33 -89 -6 -36 36 -38
100 -4 134 17 17 30 19 87 10z"/>
<path d="M9470 1110 c0 -18 7 -20 60 -20 l60 0 0 -80 c0 -78 -1 -80 -24 -80
-29 0 -51 -24 -39 -43 4 -8 23 -31 41 -51 28 -32 37 -37 70 -34 36 3 37 5 40
44 l3 41 59 2 59 2 3 -118 3 -118 43 -3 42 -3 0 220 0 221 35 0 c28 0 35 4 35
20 0 19 -7 20 -245 20 -238 0 -245 -1 -245 -20z m330 -100 l0 -80 -60 0 -60 0
0 80 0 80 60 0 60 0 0 -80z"/>
<path d="M9980 1102 c-45 -46 -42 -90 11 -147 23 -25 37 -45 31 -45 -5 0 -17
-16 -26 -35 -15 -30 -15 -38 -2 -69 19 -46 60 -66 137 -66 70 0 137 26 168 66
l19 24 31 -29 c42 -39 124 -58 186 -44 l45 10 0 -58 0 -59 45 0 45 0 0 220 0
220 90 0 90 0 0 -80 c0 -76 -1 -80 -22 -80 -59 -1 -60 -33 -1 -93 31 -32 42
-38 72 -35 35 3 36 5 39 46 l3 43 57 -3 57 -3 5 -115 5 -115 43 -3 42 -3 0
220 0 221 35 0 c28 0 35 4 35 20 0 20 -7 20 -525 20 -518 0 -525 0 -525 -20 0
-19 7 -20 94 -20 90 0 96 -1 115 -26 14 -18 21 -41 21 -70 0 -54 -25 -75 -78
-67 -35 6 -35 6 -29 -25 4 -20 2 -32 -4 -32 -6 0 -29 -16 -51 -35 -57 -48
-101 -62 -133 -41 -19 12 -25 25 -25 51 0 42 23 57 100 65 l55 5 -24 24 c-20
20 -29 22 -76 16 -49 -6 -54 -4 -74 21 -23 29 -27 64 -10 95 13 25 29 16 29
-17 0 -22 4 -24 46 -24 l47 0 -7 32 c-10 48 -28 61 -95 66 -56 4 -62 2 -91
-26z m600 -131 l0 -119 -30 -25 c-16 -14 -39 -28 -49 -32 -28 -9 -78 20 -96
55 -15 30 -15 30 12 41 68 26 95 81 69 144 -9 21 -16 41 -16 46 0 5 25 9 55 9
l55 0 0 -119z m480 39 l0 -80 -60 0 -60 0 0 80 0 80 60 0 60 0 0 -80z"/>
<path d="M11580 1110 c0 -19 8 -20 167 -22 l167 -3 22 -32 c14 -21 19 -41 16
-62 -4 -26 -10 -32 -44 -42 -22 -6 -55 -8 -74 -6 -40 6 -47 1 -33 -24 8 -15
21 -19 63 -19 65 0 102 -25 112 -75 9 -48 -2 -82 -30 -101 -22 -14 -28 -14
-53 -1 -15 9 -40 28 -55 44 -28 29 -86 134 -106 191 -6 18 -18 35 -27 38 -17
7 -65 -21 -65 -38 0 -28 77 -163 119 -210 53 -60 91 -78 161 -78 54 0 81 10
117 43 46 41 38 146 -13 186 l-26 20 21 27 c24 31 27 82 6 110 -8 10 -15 22
-15 27 0 4 84 7 186 7 l185 0 -3 -32 -3 -33 -83 -5 c-68 -4 -86 -9 -98 -24
-24 -33 -17 -74 17 -108 21 -22 27 -34 20 -41 -6 -6 -11 -28 -11 -48 0 -53 46
-98 103 -101 79 -4 122 3 175 27 l52 24 0 -50 0 -49 45 0 45 0 0 220 0 221 88
-3 87 -3 0 -75 0 -75 -30 -5 c-43 -7 -43 -36 1 -87 31 -37 42 -43 75 -43 37 0
38 0 41 43 l3 42 60 0 60 0 3 -117 3 -118 44 0 45 0 0 220 0 220 35 0 c28 0
35 4 35 20 0 20 -7 20 -805 20 -795 0 -805 0 -805 -20z m970 -148 c0 -110 -3
-131 -17 -144 -34 -29 -130 -78 -154 -78 -38 0 -69 27 -69 60 0 42 24 60 81
60 37 0 49 4 49 15 0 23 -49 37 -106 30 -46 -5 -51 -4 -60 17 -22 50 -11 57
94 60 l97 3 3 53 3 52 40 0 39 0 0 -128z m480 48 l0 -80 -65 0 -65 0 0 80 0
80 65 0 65 0 0 -80z"/>
<path d="M6038 650 c-24 -79 -23 -80 18 -80 34 0 36 3 65 65 16 35 29 67 29
70 0 3 -21 5 -47 5 l-48 0 -17 -60z"/>
</g>
</svg>
